<svg xmlns="http://www.w3.org/2000/svg" xml:space="preserve" style="enable-background:new 0 0 201.4 230" viewBox="0 0 201.4 230"><path d="M.1 208.4c0 11.9 9.7 21.6 21.6 21.6h158.1c11.9 0 21.6-9.7 21.6-21.6V86.2H.1v122.2zm143.7-88c0-3 2.4-5.4 5.4-5.4h18c3 0 5.4 2.4 5.4 5.4v18c0 3-2.4 5.4-5.4 5.4h-18c-3 0-5.4-2.4-5.4-5.4v-18zm0 57.5c0-3 2.4-5.4 5.4-5.4h18c3 0 5.4 2.4 5.4 5.4v18c0 3-2.4 5.4-5.4 5.4h-18c-3 0-5.4-2.4-5.4-5.4v-18zm-57.5-57.5c0-3 2.4-5.4 5.4-5.4h18c3 0 5.4 2.4 5.4 5.4v18c0 3-2.4 5.4-5.4 5.4h-18c-3 0-5.4-2.4-5.4-5.4v-18zm0 57.5c0-3 2.4-5.4 5.4-5.4h18c3 0 5.4 2.4 5.4 5.4v18c0 3-2.4 5.4-5.4 5.4h-18c-3 0-5.4-2.4-5.4-5.4v-18zm-57.5-57.5c0-3 2.4-5.4 5.4-5.4h18c3 0 5.4 2.4 5.4 5.4v18c0 3-2.4 5.4-5.4 5.4h-18c-3 0-5.4-2.4-5.4-5.4v-18zm0 57.5c0-3 2.4-5.4 5.4-5.4h18c3 0 5.4 2.4 5.4 5.4v18c0 3-2.4 5.4-5.4 5.4h-18c-3 0-5.4-2.4-5.4-5.4v-18zm151-149.1h-21.6V7.2c0-4-3.2-7.2-7.2-7.2h-14.4c-4 0-7.2 3.2-7.2 7.2v21.6H71.9V7.2c0-4-3.2-7.2-7.2-7.2H50.4c-4 0-7.2 3.2-7.2 7.2v21.6H21.6C9.7 28.8 0 38.5 0 50.4V72h201.2V50.3c.1-11.9-9.5-21.5-21.4-21.5z"/></svg>