<svg xmlns="http://www.w3.org/2000/svg" xml:space="preserve" style="enable-background:new 0 0 230 229.6" viewBox="0 0 230 229.6"><path d="M137.1 159.8c2.5-4.1.8-9-2.5-11.5l-12.3-7.4v-18c0-4.9-3.3-8.2-8.2-8.2s-8.2 3.3-8.2 8.2v18l-12.3 7.4c-4.1 2.5-4.9 7.4-2.5 11.5 2.5 4.1 7.4 4.9 11.5 2.5l11.5-7.4h1.6l11.5 7.4c3.3 1.6 7 1.1 9.9-2.5zM73.2 98.3h81.9c2.5 0 4.9-.8 6.6-3.3 1.6-1.6 2.5-4.1 1.6-6.6-2.5-12.3-11.5-22.1-23.8-25.4-3.3-.8-5.7-3.3-6.6-6.6 3.3-4.1 5.7-9.8 5.7-15.6V24.6C138.6 10.7 128 0 114 0c-13.9 0-24.6 10.6-24.6 24.6V41c0 5.7 2.5 11.5 5.7 15.6-.8 3.3-3.3 5.7-6.6 6.6-12.3 3.3-21.3 13.1-22.9 25.4-.8 2.5 0 4.9 1.6 6.6 1.1 2.3 3.6 3.1 6 3.1zm131.9 95.9c-3.3-.8-5.7-3.3-6.6-6.6 3.3-4.1 5.7-9.8 5.7-15.6v-16.3c0-13.9-10.6-24.6-24.6-24.6s-24.5 10.6-24.5 24.6v16.4c0 5.7 2.5 11.5 5.7 15.6-.8 3.3-3.3 5.7-6.6 6.6-12.3 3.3-21.3 13.1-22.9 25.4-.8 2.5 0 4.9 1.6 6.6 1.6 1.6 4.1 3.3 6.6 3.3h81.9c2.5 0 4.9-.8 6.6-3.3 1.6-1.6 2.5-4.1 1.6-6.6-3.2-12.4-13-22.3-24.5-25.5zm-131.1 0c-3.3-.8-5.7-3.3-6.6-6.6 3.3-4.1 5.7-9.8 5.7-15.6v-16.3c0-13.9-10.6-24.6-24.6-24.6s-24.4 10.6-24.4 24.6v16.4c0 5.7 2.5 11.5 5.7 15.6-.8 3.3-3.3 5.7-6.6 6.6C11 197.4 2 207.3.3 219.5c-.8 2.5 0 4.9 1.6 6.6.8 2.5 3.3 3.3 5.7 3.3h81.9c2.5 0 4.9-.8 6.6-3.3 1.6-1.6 2.5-4.1 1.6-6.6-2.4-12.2-12.2-22.1-23.7-25.3z"/></svg>