<svg xmlns="http://www.w3.org/2000/svg" xml:space="preserve" style="enable-background:new 0 0 512 512" viewBox="0 0 512 512"><style>.st0{fill:#fff}.st1{fill:#db463e}</style><path d="M449 362.8c-2.3-3.3-4.1-5.8-5.7-7.8-5.9-7.8-8-11.2-9.5-25.4-2.1-20.7-9.4-125.3-7.9-133 15-74.9 9.5-99.1 2.2-106.2-2-1.9-5.3-3.9-13.3-2-7.6 2.4-19.5 48.3-25.5 98.2-.3 3.2-3.2 5.6-6.4 5.2-3.2-.3-5.6-3-5.5-6.2 3.3-94.2-19.6-126.9-33.6-137.9-12.6-10-24.1-7.9-27.2-7-3.3.8-6 3.1-7.3 6.2-2 4.5-3.6 15.5 7.8 37.6 27.4 53.2 16.2 93.6 15.7 95.2-1 3.2-4.3 4.9-7.5 4-2.1-.6-3.7-2.4-4.1-4.5-16.7-87.6-67.3-114.4-109.5-128-16.4-5.3-29.3-3.9-32.6 3.8-3.6 8.1 3.3 22.6 21.1 32.8 41.3 23.8 66 81.2 67 83.7 1.2 3.1-.3 6.6-3.3 7.8-2.1.9-4.6.4-6.3-1.1L246 167.6c-22.9-21.4-61.9-39.1-96.4-18.6l-4.1 2.4c-3.5 2-7.9 4.4-9.9 5.9-21 15.3-45.8 34.7-50.2 40.4-1.7 2.2-4.3 6.2-3 8.6 1.8 3.5 11.2 6.9 24.7 6.2 17.4-.9 29.6-5 40.3-8.7 19.9-6.8 35.6-12.2 65.6 10.7 45.4 34.8 58 73 38.4 117-16.5 37-48.6 36.8-76.7 36.5-15.8-.1-30.7-.2-43.5 5.1-17.4 7.3-23.1 22.5-24.9 30.3 21.7 5.9 105.3 28 129 30 30.6 2.5 62.7 5.5 82.2 7.4 47.7 3.6 61.9 40.7 94.8 30.5 34.3-9.1 56-34 55.6-62.6 3.7-18.5-18.9-45.9-18.9-45.9z" class="st0"/><path d="M123.3 250c14.6-5.1 27.5-8.3 38.8-9.7l10.5-1.4c10.5-1.4 31.1-5.5 38.2.1s7.9 83.3 7.9 83.3l-20-3.6-20.5 8.8-6.3-48.5c-.3-2.3-1.4-4.1-3.1-5.5-1.7-1.3-3.7-1.9-6.1-1.6l-8.1 1c-5.8.8-11.2 1.8-16 3-4.8 1.2-8.6 2.2-11.5 2.9l7 54.3-20.6-3.5-20 8.7-13.3-103.6-25.4-11.6-1.5-11.7 52.9 2.5 17.1 36.1z" class="st0"/><circle cx="117" cy="357.2" r="19.6" class="st0"/><circle cx="202.2" cy="346.2" r="19.6" class="st0"/><circle cx="298" cy="280.7" r="32.3" class="st0"/><path id="left-eye" d="M300.6 251c16.4 0 29.7 13.3 29.7 29.7s-13.3 29.7-29.7 29.7-29.7-13.3-29.7-29.7 13.3-29.7 29.7-29.7m0-5.2c-19.2 0-34.9 15.7-34.9 34.9s15.7 34.9 34.9 34.9 34.9-15.7 34.9-34.9-15.6-34.9-34.9-34.9z" class="st1"/><circle id="left-pupil" cx="300.5" cy="281.4" r="11.4" class="st1"/><path id="right-eye" d="M376 253.6c16.4 0 29.7 13.3 29.7 29.7S392.4 313 376 313s-29.7-13.3-29.7-29.7 13.3-29.7 29.7-29.7m0-5.2c-19.2 0-34.9 15.7-34.9 34.9s15.7 34.9 34.9 34.9 34.9-15.7 34.9-34.9-15.7-34.9-34.9-34.9z" class="st1"/><circle id="right-pupil" cx="375.8" cy="284" r="11.4" class="st1"/><path d="M284.8 349c3.6 6.3 35 68 95.1 6.2-52.7 4.9-60.3 3.9-95.1-6.2z" class="st1"/></svg>