<svg xmlns="http://www.w3.org/2000/svg" xml:space="preserve" id="Layer_1" x="0" y="0" style="enable-background:new 0 0 300 300" version="1.1" viewBox="0 0 300 300"><style>.st0{fill:#db463e}</style><circle cx="116.2" cy="236.3" r="28.7" class="st0"/><circle cx="208.2" cy="236.3" r="28.7" class="st0"/><path d="M241.1 69.5H106.7v-3.1C105.1 48.6 90.1 34.9 72.2 35h-25c-6.4 0-11.5 5.1-11.5 11.5S40.9 58 47.2 58h25c6 0 11 4.5 11.5 10.5l7.5 84.6c1.6 17.8 16.6 31.5 34.5 31.4h88c15.7.1 29.5-10.4 33.6-25.5L264 96.9v-1.5h.1c.1-1 .2-2 .2-3.1-.1-12.7-10.5-22.9-23.2-22.8zm-32.9 63.2h-27.8v29.4h-15.5v-29.4H137v-14.8h27.8V88.8h15.5v29.1h27.8v14.8z" class="st0"/></svg>