<svg xmlns="http://www.w3.org/2000/svg" xml:space="preserve" x="0" y="0" style="enable-background:new 0 0 767.3 169.5" version="1.1" viewBox="0 0 767.3 169.5"><style>.st0{fill:#db463e}</style><path d="M63.5 46.5c14.9-3.1 27.9-4.6 39.1-4.6H113c10.4 0 31-1.4 37.3 4.9 6.3 6.3-2.8 82.3-2.8 82.3l-19.1-6-21.1 6V81c0-2.3-.8-4.2-2.3-5.8-1.5-1.5-3.4-2.3-5.8-2.3h-8c-5.8 0-11.2.3-16 .9-4.8.6-8.7 1.1-11.6 1.4v53.9l-19.7-6-20.6 6v-103L0 11.6V0l51.3 9.1 12.2 37.4zm110.4 0c28.1-3.1 53.4-4.6 75.9-4.6 10.4 0 18.8 3.1 25.1 9.4 6.3 6.3 9.4 14.6 9.4 25.1v89.7h-35.7l-2.3-11.5c-7.2 4.8-14.6 8.2-22.2 10.5-7.6 2.2-14 3.3-19.2 3.3h-8c-10.4 0-18.8-3.1-25.1-9.4-6.3-6.3-9.4-14.6-9.4-25.1v-10.3c0-10.4 3.1-18.8 9.4-25.1 6.3-6.3 14.6-9.4 25.1-9.4H244v-9.2c0-2.3-.8-4.2-2.3-5.8-1.5-1.5-3.5-2.3-5.8-2.3-10 0-21 .5-33 1.4-12 .9-21.7 1.6-29.1 2.1V46.5zm42.5 89.7c8.1 0 17.3-1.5 27.6-4.6v-13.8h-33.4c-2.3 0-4.2.8-5.8 2.3-1.5 1.5-2.3 3.5-2.3 5.8v2.3c0 2.3.8 4.2 2.3 5.8 1.5 1.5 3.5 2.3 5.8 2.3h5.8zm84-2.3c31.1 2.3 55.7 3.5 73.6 3.5 2.3 0 4.2-.8 5.8-2.3 1.5-1.5 2.3-3.5 2.3-5.8v-8.1h-49.5c-10.4 0-18.8-3.1-25.1-9.4-6.3-6.3-9.4-14.6-9.4-25.1v-8c0-10.4 3.1-18.8 9.4-25.1 6.3-6.3 14.6-9.4 25.1-9.4h78.2v29.9h-64.4c-2.3 0-4.2.8-5.8 2.3-1.5 1.5-2.3 3.5-2.3 5.8s.8 4.2 2.3 5.8c1.5 1.5 3.4 2.3 5.8 2.3h41.4c10.4 0 18.8 3.1 25.1 9.4 6.3 6.3 9.4 14.6 9.4 25.1v9.2c0 10.4-3.1 18.8-9.4 25.1-6.3 6.3-14.6 9.4-25.1 9.4-27.1 0-56.3-1.5-87.4-4.6v-30zm133.4 0c31.1 2.3 55.7 3.5 73.6 3.5 2.3 0 4.2-.8 5.8-2.3 1.5-1.5 2.3-3.5 2.3-5.8v-8.1H466c-10.4 0-18.8-3.1-25.1-9.4-6.3-6.3-9.4-14.6-9.4-25.1v-8c0-10.4 3.1-18.8 9.4-25.1 6.3-6.3 14.6-9.4 25.1-9.4h78.2v29.9h-64.4c-2.3 0-4.2.8-5.8 2.3-1.5 1.5-2.3 3.5-2.3 5.8s.8 4.2 2.3 5.8c1.5 1.5 3.4 2.3 5.8 2.3h41.4c10.4 0 18.8 3.1 25.1 9.4 6.3 6.3 9.4 14.6 9.4 25.1v9.2c0 10.4-3.1 18.8-9.4 25.1-6.3 6.3-14.6 9.4-25.1 9.4-27.1 0-56.3-1.5-87.4-4.6v-30zm200.1 32.2c-10.3 1.5-20 2.3-29.3 2.3s-17.1-3.1-23.3-9.4c-6.3-6.3-9.4-14.6-9.4-25.1V5.1H612v123.1c0 2.3.8 4.2 2.3 5.8 1.5 1.5 3.5 2.3 5.8 2.3h13.8v29.8zm128.8-2.3c-29.6 3.1-56.4 4.6-80.5 4.6-10.4 0-18.8-3.1-25.1-9.4-6.3-6.3-9.4-14.6-9.4-25.1V78.7c0-11.5 3.3-20.5 9.8-27 6.5-6.5 15.5-9.8 27-9.8h46c11.5 0 20.5 3.3 27 9.8 6.5 6.5 9.8 15.5 9.8 27v42.5H688v9.2c0 2.3.8 4.2 2.3 5.7 1.5 1.5 3.5 2.3 5.8 2.3 15.2 0 37.4-1.2 66.7-3.5v28.9zm-65.6-93.2c-6.1 0-9.2 3.1-9.2 9.2v12.6H727V79.8c0-6.1-3.1-9.2-9.2-9.2h-20.7z" class="st0"/><circle cx="43.8" cy="150.3" r="19.3" class="st0"/><circle cx="128.3" cy="150.3" r="19.3" class="st0"/></svg>