<svg xmlns="http://www.w3.org/2000/svg" xml:space="preserve" style="enable-background:new 0 0 17.6 17.6" viewBox="0 0 17.6 17.6"><path d="m7.6 1-.5-1-.5 1-1 .1.8.7L6.1 3l1-.7 1 .7-.3-1.2.8-.7-1-.1zm8.3 10.7-.8-1.7-.8 1.7-1.7.2 1.4 1.2-.6 1.9 1.7-1.1 1.7 1.1-.6-1.9 1.4-1.2-1.7-.2zM3.3 3.3 2.6 2l-.7 1.3-1.3.2 1.1.9L1.3 6l1.3-.9 1.3.9-.4-1.6 1.1-.9-1.3-.2zM0 14c0 .5.2 1 .6 1.4L2.2 17c.4.4.9.6 1.4.6s1-.2 1.4-.6L16.6 5.4c.4-.4.6-.9.6-1.4s-.2-1-.6-1.4L15 1c-.8-.8-2.1-.8-2.8 0L.6 12.6c-.4.4-.6.9-.6 1.4zM13.6 2.4 15.2 4l-3.6 3.6L10 6l3.6-3.6z"/></svg>