<svg xmlns="http://www.w3.org/2000/svg" xml:space="preserve" style="enable-background:new 0 0 300 300" viewBox="0 0 300 300"><path d="M217.5 187.5c-10.1 0-19.8 4-27 11L120.1 159c1.4-6 1.4-12.2 0-18.2l70.3-39.6c15.3 14.9 39.7 14.5 54.6-.8 14.9-15.3 14.5-39.7-.8-54.6s-39.7-14.5-54.6.8c-8.5 8.7-12.4 20.9-10.5 33l-72 40.5c-16.4-13.7-40.9-11.5-54.5 5s-11.5 40.9 5 54.5c14.4 12 35.2 12 49.6 0l72 40.5c-3.4 21.1 11 41 32.2 44.3s41-11 44.3-32.2c3.4-21.1-11-41-32.2-44.3-1.9-.2-3.9-.4-6-.4z" style="fill:#db463e"/></svg>