<?xml version="1.0" standalone="no"?>
<!DOCTYPE svg PUBLIC "-//W3C//DTD SVG 20010904//EN"
 "http://www.w3.org/TR/2001/REC-SVG-20010904/DTD/svg10.dtd">
<svg version="1.0" xmlns="http://www.w3.org/2000/svg"
 width="680.000000pt" height="680.000000pt" viewBox="0 0 680.000000 680.000000"
 preserveAspectRatio="xMidYMid meet">
<metadata>
Created by potrace 1.14, written by Peter Selinger 2001-2017
</metadata>
<g transform="translate(0.000000,680.000000) scale(0.100000,-0.100000)"
fill="#000000" stroke="none">
<path d="M350 6567 l0 -232 200 -125 c110 -69 208 -129 218 -135 10 -5 47 -29
83 -51 35 -23 145 -92 244 -153 99 -62 182 -116 185 -121 3 -4 5 -933 5 -2064
0 -1131 4 -2056 8 -2056 11 0 62 14 361 102 131 38 246 71 255 73 35 8 167 47
181 54 9 5 54 -4 105 -21 50 -16 97 -30 105 -32 8 -2 23 -6 32 -10 9 -4 22 -9
30 -10 7 -1 33 -9 58 -16 25 -7 50 -14 55 -16 6 -1 38 -11 72 -23 35 -12 71
-23 80 -25 10 -1 25 -6 33 -9 29 -11 217 -67 227 -67 7 0 11 354 11 1071 0
589 4 1075 8 1079 5 5 36 11 69 15 99 10 138 14 175 19 19 2 55 7 80 10 25 4
61 8 80 11 19 3 60 7 90 10 30 3 73 7 95 10 114 13 312 19 595 19 l315 1 58
-27 c70 -33 149 -115 162 -168 1 -3 5 -17 9 -31 4 -14 9 -34 11 -45 2 -10 4
-461 4 -1002 1 -719 4 -981 12 -976 9 5 91 29 169 48 8 3 87 25 175 51 88 25
167 48 175 50 8 2 56 16 105 30 50 14 97 28 105 30 8 2 39 10 68 18 29 8 55
11 57 7 3 -4 19 -11 37 -15 18 -4 35 -9 38 -9 3 -1 52 -17 110 -35 58 -18 114
-36 125 -41 20 -8 131 -42 150 -46 6 -1 66 -20 135 -43 127 -42 149 -47 151
-33 0 4 2 14 4 22 1 8 6 47 9 85 4 39 9 81 10 95 2 14 6 57 10 95 8 78 16 147
21 185 2 14 7 57 10 95 3 39 8 86 11 105 2 19 6 69 9 110 3 41 7 86 10 98 2
13 7 63 10 110 4 48 8 101 10 117 7 60 19 201 19 233 0 17 3 32 6 32 3 0 5 26
6 58 1 54 11 217 14 217 0 0 3 45 6 100 2 55 6 125 9 155 14 187 19 365 20
670 0 363 -7 492 -31 572 -3 9 -7 27 -9 39 -14 73 -63 125 -158 168 -92 42
-114 50 -165 62 -74 17 -85 19 -122 25 -19 2 -46 7 -60 9 -31 6 -121 15 -220
21 -113 8 -800 10 -800 3 0 -4 -15 -4 -32 0 -18 4 -44 4 -58 1 -14 -4 -37 -3
-52 1 -15 4 -30 4 -33 -1 -3 -5 -18 -5 -33 -1 -15 5 -36 5 -47 1 -11 -4 -32
-4 -47 1 -15 4 -30 4 -33 -1 -3 -5 -18 -5 -33 -2 -15 4 -40 6 -57 5 -68 -7
-122 -6 -133 1 -7 4 -12 4 -12 -1 0 -4 -28 -8 -63 -9 -62 -1 -272 -13 -337
-20 -89 -9 -119 -13 -175 -19 -33 -4 -76 -8 -95 -10 -19 -2 -50 -5 -67 -9 -47
-9 -80 -14 -148 -22 -33 -5 -62 -8 -65 -9 -5 -1 -74 -14 -110 -20 -8 -1 -35
-6 -60 -10 -25 -4 -54 -9 -65 -12 -11 -2 -42 -8 -70 -13 -27 -5 -68 -14 -90
-20 -82 -20 -76 -28 -139 168 -32 97 -60 184 -63 192 -4 8 -7 17 -8 20 -1 3
-4 12 -7 20 -8 21 -72 224 -73 230 -1 6 -94 288 -102 310 -3 8 -7 20 -8 25 -3
11 -65 203 -129 395 l-41 125 -65 12 c-36 7 -81 15 -100 18 -20 3 -47 8 -60
10 -14 3 -38 8 -55 10 -16 3 -56 10 -87 16 -102 18 -113 20 -136 24 -102 18
-151 27 -172 31 -14 2 -38 7 -55 9 -16 2 -55 9 -85 16 -30 6 -68 12 -85 14
-16 1 -31 4 -32 5 -5 4 -15 6 -78 15 -64 10 -74 11 -77 15 -2 1 -14 3 -28 4
-14 2 -38 6 -55 9 -29 6 -200 36 -240 43 -11 1 -29 5 -40 7 -24 5 -106 20
-120 22 -32 4 -115 18 -145 25 -19 5 -57 11 -84 15 -27 3 -52 8 -56 10 -4 2
-29 7 -56 10 -27 4 -57 9 -67 11 -10 3 -31 7 -47 9 l-30 4 0 -232z"/>
<path d="M1970 1537 c-188 -47 -286 -98 -401 -209 -73 -70 -110 -120 -153
-204 -51 -103 -77 -203 -81 -319 -4 -110 5 -177 37 -275 19 -57 33 -88 82
-174 36 -64 153 -181 231 -231 126 -80 239 -115 395 -120 107 -4 130 -1 255
29 6 2 24 8 40 15 307 124 498 395 499 711 0 58 -3 121 -6 140 -10 54 -38 153
-47 164 -5 6 -12 22 -16 36 -26 87 -198 284 -280 322 -14 6 -25 15 -25 20 0 4
-9 8 -20 8 -11 0 -20 5 -20 10 0 6 -4 10 -9 10 -5 0 -26 8 -47 17 -44 19 -39
17 -119 39 -68 18 -261 25 -315 11z"/>
<path d="M5397 1544 c-1 -2 -19 -6 -37 -8 -180 -26 -370 -142 -486 -297 -41
-54 -75 -113 -73 -125 0 -4 -4 -10 -9 -13 -16 -11 -58 -148 -67 -221 -2 -19
-5 -37 -5 -40 -5 -12 -2 -114 4 -162 40 -332 301 -608 631 -666 50 -9 238 -8
285 2 67 13 73 15 170 57 307 133 493 474 445 814 -5 33 -9 62 -10 65 -1 3 -6
20 -10 38 -4 18 -12 35 -16 38 -5 3 -9 13 -9 22 0 9 -10 37 -23 62 -107 210
-290 359 -512 415 -60 15 -267 29 -278 19z"/>
</g>
</svg>
