<?xml version="1.0" encoding="utf-8"?>
<!-- Generator: Adobe Illustrator 26.1.0, SVG Export Plug-In . SVG Version: 6.00 Build 0)  -->
<svg version="1.1" id="Layer_1" xmlns="http://www.w3.org/2000/svg" xmlns:xlink="http://www.w3.org/1999/xlink" x="0px" y="0px"
	 viewBox="0 0 152.5 169.6" style="enable-background:new 0 0 152.5 169.6;" xml:space="preserve">
<style type="text/css">
	.st0{fill:#db463e;}
</style>
<path class="st0" d="M63.5,46.5c14.9-3.1,27.9-4.6,39.1-4.6H113c10.4,0,31-1.4,37.3,4.9s-2.8,82.3-2.8,82.3l-19.1-6l-21.1,6V81
	c0-2.3-0.8-4.2-2.3-5.8c-1.5-1.5-3.4-2.3-5.8-2.3h-8c-5.8,0-11.2,0.3-16,0.9s-8.7,1.1-11.6,1.4v53.9l-19.7-6l-20.6,6v-103L0,11.6V0
	l51.3,9.1L63.5,46.5z"/>
<circle class="st0" cx="43.8" cy="150.3" r="19.3"/>
<circle class="st0" cx="128.3" cy="150.3" r="19.3"/>
</svg>
